<?xml version="1.0" encoding="iso-8859-1"?>
<!-- Generator: Adobe Illustrator 16.0.0, SVG Export Plug-In . SVG Version: 6.00 Build 0)  -->
<!DOCTYPE svg PUBLIC "-//W3C//DTD SVG 1.1//EN" "http://www.w3.org/Graphics/SVG/1.1/DTD/svg11.dtd">
<svg version="1.1" id="Capa_1" xmlns="http://www.w3.org/2000/svg" xmlns:xlink="http://www.w3.org/1999/xlink" x="0px" y="0px"
	 width="466.743px" height="466.743px" viewBox="0 0 466.743 466.743" style="enable-background:new 0 0 466.743 466.743;"
	 xml:space="preserve">
<g>
	<g>
		<path d="M227.25,345.178l-17.468-60.692c-20.464-3.282-39.535-10.664-56.344-21.4c-16.382,46.606-35.514,102.033-33.142,102.033
			c3.925,0,71.965,101.625,71.965,101.625L227.25,345.178z"/>
		<path d="M346.451,365.118c2.368,0-16.759-55.427-33.134-102.025c-20.241,12.912-43.761,21.052-69.027,22.895
			c-3.619,0.265-7.233,0.55-10.918,0.55c-3.684,0-7.294-0.289-10.913-0.55l10.913,37.91l41.105,142.846
			C274.478,466.743,342.528,365.118,346.451,365.118z"/>
		<path d="M233.372,0C157.497,0,95.991,61.506,95.991,137.38c0,47.776,24.413,89.816,61.414,114.428
			c14.551,9.682,31.045,16.683,48.791,20.241c2.104,0.429,4.27,0.657,6.404,0.978c2.136,0.325,4.24,0.762,6.414,0.982
			c4.719,0.493,9.506,0.761,14.359,0.761c4.854,0,9.644-0.268,14.36-0.761c22.622-2.345,43.597-10.211,61.606-22.186
			c1.711-1.142,3.317-2.393,4.977-3.603c1.655-1.21,3.326-2.408,4.938-3.695c31.37-25.172,51.499-63.782,51.499-107.13
			C370.752,61.506,309.246,0,233.372,0z M262.596,198.51v6.231v6.229v8.736c0,3.859-3.134,6.995-6.997,6.995h-5.883h-24.808
			c-1.491,0-2.793-0.575-3.933-1.369c-1.685-1.184-2.839-3.014-2.981-5.194c-0.008-0.15-0.088-0.284-0.088-0.433l-0.008-3.992
			v-1.771l-0.18-133.133c-0.006-3.865-0.241-6.997-0.533-6.997c-0.291,0-3.318,1.407-6.772,3.14l-11.706,5.873
			c-3.454,1.735-7.606,0.314-9.289-3.17l-2.877-5.999c-1.675-3.484-0.269-7.774,3.146-9.596l27.297-14.531
			c3.416-1.813,9.311-3.288,13.17-3.288h25.447c3.863,0,6.997,3.134,6.997,6.995V198.51z"/>
	</g>
</g>
<g>
</g>
<g>
</g>
<g>
</g>
<g>
</g>
<g>
</g>
<g>
</g>
<g>
</g>
<g>
</g>
<g>
</g>
<g>
</g>
<g>
</g>
<g>
</g>
<g>
</g>
<g>
</g>
<g>
</g>
</svg>
